<?xml version="1.0" encoding="utf-8"?>
<svg xmlns="http://www.w3.org/2000/svg" viewBox="0 0 500 500" xmlns:bx="https://boxy-svg.com" width="500px" height="500px"><defs><bx:export><bx:file format="svg" href="#object-0" path="Bez nazwy.svg"/><bx:file format="svg" path="Bez nazwy 2.svg"/></bx:export></defs><ellipse style="stroke: rgb(0, 0, 0); fill: rgb(255, 255, 255);" cx="239.422" cy="244.582" rx="215.686" ry="213.966" id="object-0"/><g transform="matrix(0.151255, 0, 0, -0.129694, -144.886507, 577.312448)" fill="#000000" stroke="none" style=""><path d="M2342 4015 c-72 -25 -72 -25 -92 -5 -24 24 -26 24 -80 5 -35 -12 -49 -13 -76 -3 -27 9 -40 8 -80 -7 -27 -10 -60 -30 -73 -44 -14 -14 -44 -35 -66 -46 -28 -14 -46 -32 -59 -61 -18 -38 -30 -47 -118 -90 -110 -52 -153 -93 -163 -154 -5 -30 3 -61 40 -159 26 -67 45 -127 42 -135 -3 -7 -43 -23 -89 -36 -133 -37 -167 -59 -202 -127 -22 -44 -24 -383 -1 -436 19 -46 56 -89 114 -131 l48 -35 6 -451 c6 -422 8 -454 27 -497 30 -67 85 -137 139 -176 67 -48 477 -296 518 -313 55 -24 183 -47 222 -40 95 15 1011 296 1080 330 67 34 143 112 178 183 l28 58 3 397 3 396 44 27 c95 55 125 182 69 293 -23 47 -39 61 -175 152 l-150 101 21 26 c32 41 27 95 -13 135 -58 59 -220 202 -277 244 -68 51 -94 58 -155 40 -46 -14 -49 -14 -113 17 l-67 32 -36 94 c-50 130 -74 146 -174 116 -18 -5 -25 8 -68 119 -53 138 -75 172 -123 192 -43 18 -46 18 -132 -11z m130 -44 c17 -14 41 -62 76 -158 74 -200 167 -512 156 -522 -5 -5 -171 -86 -369 -180 -237 -113 -361 -167 -364 -159 -5 18 -139 341 -211 508 -64 150 -66 165 -26 209 23 25 175 106 183 97 3 -3 8 -34 12 -70 4 -35 13 -71 20 -79 10 -13 7 -19 -18 -38 -19 -14 -31 -32 -31 -45 0 -34 110 -351 130 -376 16 -20 20 -21 51 -8 88 36 455 212 467 224 12 12 11 21 -6 60 -12 25 -25 46 -29 46 -4 0 -86 -34 -181 -76 -157 -69 -173 -79 -168 -98 18 -64 20 -60 -44 -88 -43 -19 -62 -23 -65 -15 -3 7 -18 50 -34 97 -16 47 -40 115 -54 153 l-26 67 37 18 c49 24 185 57 205 49 8 -3 18 -19 22 -36 11 -51 28 -56 69 -20 35 30 36 34 35 93 0 33 2 77 6 97 15 77 -42 88 -191 34 -54 -19 -99 -34 -100 -32 -2 2 -44 137 -44 142 0 3 67 32 179 74 98 38 103 39 108 21 7 -25 7 -25 79 5 72 30 94 31 126 6z m-591 -144 c-13 -13 -26 -3 -16 12 3 6 11 8 17 5 6 -4 6 -10 -1 -17z m-112 -82 c-26 -13 -59 -39 -74 -56 -42 -50 -32 -101 57 -304 128 -294 192 -455 182 -465 -5 -5 -21 -11 -35 -15 -23 -6 -27 -2 -51 57 -14 35 -76 187 -138 338 -95 234 -111 281 -107 314 7 50 36 79 123 121 79 39 113 46 43 10z m493 -97 c-4 -77 -21 -131 -22 -70 0 75 -25 84 -144 57 -66 -15 -88 -13 -118 13 -28 23 -21 32 11 16 28 -14 37 -12 133 20 148 50 144 51 140 -36z m438 18 c0 -2 -7 -7 -16 -10 -8 -3 -12 -2 -9 4 6 10 25 14 25 6z m111 -88 c23 -46 53 -98 67 -116 28 -37 29 -35 -18 -49 -35 -10 -37 -13 -25 -45 5 -13 -2 -21 -31 -33 -29 -12 -39 -13 -45 -3 -6 10 -52 175 -74 269 -6 23 -2 28 32 42 21 9 41 16 45 16 4 1 26 -36 49 -81z m323 -203 c0 -12 -44 -78 -99 -148 l-98 -126 -42 6 c-54 7 -107 -10 -152 -50 -20 -18 -88 -90 -152 -162 -64 -71 -122 -135 -130 -141 -8 -7 -39 -17 -68 -24 -30 -6 -115 -32 -191 -56 l-137 -44 -73 77 c-46 49 -71 85 -70 97 3 21 29 36 253 143 588 282 798 385 850 416 67 40 110 44 109 12z m196 -166 c61 -55 110 -102 110 -105 0 -2 -57 -73 -127 -157 -71 -83 -142 -170 -159 -192 -37 -46 -31 -48 -168 48 -115 80 -118 86 -80 134 17 21 79 101 139 178 118 153 154 195 167 195 5 0 58 -45 118 -101z m-1686 3 c3 -5 -17 -19 -44 -32 -28 -13 -50 -28 -50 -33 0 -5 35 -46 78 -91 173 -179 255 -274 247 -287 -3 -5 74 -97 172 -205 98 -107 181 -203 184 -212 4 -9 16 -25 27 -35 19 -17 21 -17 67 12 26 17 142 61 259 100 116 38 350 115 519 171 l308 101 51 -17 c42 -13 57 -14 89 -5 47 14 50 35 8 60 -23 14 -38 17 -55 11 -21 -8 -71 18 -158 81 -5 4 12 34 39 68 l47 60 127 -85 c69 -47 138 -99 153 -114 33 -35 51 -98 42 -145 -8 -43 -60 -92 -109 -101 l-35 -6 0 -402 c0 -463 -1 -472 -76 -556 -26 -28 -63 -59 -83 -69 -39 -20 -257 -89 -731 -231 -257 -77 -313 -91 -358 -87 -62 4 -94 29 -117 91 -13 35 -15 102 -13 465 l3 423 644 213 c354 117 650 220 658 228 13 13 13 17 -7 37 -17 17 -29 21 -52 16 -30 -6 -888 -285 -1133 -368 -135 -46 -217 -53 -272 -25 -40 21 -398 265 -478 325 -113 86 -178 147 -191 179 -10 23 -14 81 -14 198 l0 165 28 30 c21 23 48 35 117 54 106 29 102 28 109 18z m1236 -177 c0 -2 -23 -36 -51 -74 -28 -39 -49 -76 -47 -84 6 -24 131 -129 183 -152 55 -24 100 -65 73 -65 -9 0 -21 7 -28 15 -19 23 -30 19 -87 -39 -43 -45 -60 -56 -98 -62 -25 -3 -48 -10 -51 -15 -8 -13 -44 -11 -44 2 0 6 18 33 40 59 30 35 36 50 28 58 -7 7 -17 12 -24 12 -19 0 -116 -128 -123 -162 -7 -33 -31 -51 -31 -24 0 22 -23 20 -45 -4 -10 -11 -25 -20 -32 -20 -13 0 19 52 98 159 l23 31 -31 31 c-41 41 -58 34 -126 -49 -68 -83 -115 -128 -123 -119 -4 4 -2 12 3 19 158 207 387 462 428 478 22 10 65 13 65 5z m437 -274 l24 -20 -29 -15 c-16 -8 -32 -12 -35 -9 -4 3 -13 0 -22 -7 -28 -24 -27 -2 2 34 15 20 30 36 31 36 2 0 15 -9 29 -19z m-707 -85 c0 -17 -147 -226 -159 -226 -5 0 -14 6 -20 14 -10 11 5 36 75 125 79 101 104 123 104 87z m-242 -43 c-54 -59 -107 -139 -110 -168 l-3 -30 -70 67 c-38 37 -68 69 -65 71 6 6 250 85 264 86 6 1 -2 -11 -16 -26z m-541 -338 c133 -88 225 -141 259 -151 l53 -15 3 -447 c2 -246 2 -448 2 -450 -2 -5 -321 189 -425 259 -42 29 -64 52 -83 91 l-26 52 0 398 c0 219 2 398 5 398 3 0 99 -61 212 -135z"/><path d="M3182 3208 c-7 -7 -12 -15 -12 -19 0 -4 32 -35 70 -69 58 -52 73 -60 85 -50 19 16 18 16 -63 88 -52 47 -72 58 -80 50z"/><path d="M3129 3104 c-12 -15 -7 -22 46 -70 33 -29 65 -54 72 -54 29 0 18 21 -41 79 -57 57 -64 61 -77 45z"/><path d="M3071 3021 c-19 -12 -14 -20 52 -79 54 -49 77 -58 77 -29 0 12 -100 117 -110 117 -3 0 -11 -4 -19 -9z"/><path d="M3281 2219 c-78 -22 -91 -34 -98 -86 -4 -34 -11 -43 -39 -56 -22 -11 -35 -13 -40 -6 -7 12 -8 11 29 27 21 9 27 18 27 42 0 16 -1 30 -2 30 -17 0 -260 -70 -278 -80 -14 -8 -45 -12 -70 -11 -59 3 -105 -28 -138 -90 -26 -52 -67 -268 -57 -306 9 -37 37 -45 87 -26 24 9 66 15 95 14 56 -2 127 22 152 52 12 15 9 17 -28 17 -46 0 -46 0 -26 55 18 50 18 138 1 188 -14 37 -13 39 11 48 13 5 28 9 32 9 12 0 21 -81 21 -192 0 -75 3 -99 13 -96 9 3 13 44 15 149 1 79 6 146 10 150 4 4 19 9 35 13 l27 6 0 -134 c0 -134 7 -163 33 -137 7 7 14 57 17 117 l5 105 33 20 32 21 0 -120 c0 -151 0 -151 110 -121 92 25 116 39 107 62 -5 14 -15 13 -91 -8 l-86 -23 1 56 c1 32 3 49 6 39 3 -11 11 -16 21 -13 9 3 44 14 77 24 39 12 61 24 63 35 5 22 -17 22 -98 -3 -36 -11 -66 -20 -66 -20 -1 0 -5 11 -8 25 -7 29 2 54 13 36 10 -15 155 33 159 53 2 10 -3 16 -15 16 -26 0 -126 -30 -137 -41 -18 -17 -22 -9 -17 34 l6 42 75 25 c91 30 100 36 100 61 0 24 -31 24 -119 -2z m-475 -227 c23 -15 34 -52 34 -112 0 -69 -19 -123 -48 -139 -39 -21 -61 5 -77 87 -20 97 38 200 91 164z"/><path d="M2596 2025 c-9 -9 -20 -35 -27 -58 -29 -112 -49 -180 -53 -184 -2 -2 -19 42 -38 99 -31 96 -35 103 -58 100 -14 -1 -28 -6 -33 -11 -5 -5 17 -88 50 -187 49 -152 61 -179 78 -179 16 0 24 17 47 110 16 61 42 153 58 207 17 53 30 101 30 107 0 16 -36 13 -54 -4z"/><path d="M1705 2198 c-3 -7 -4 -117 -3 -243 3 -230 3 -230 26 -233 l22 -3 0 211 c0 193 1 212 16 206 10 -4 65 -36 124 -71 60 -36 112 -65 118 -65 6 0 8 8 5 18 -2 10 -63 55 -136 100 -152 93 -165 99 -172 80z"/></g></svg>